STARTFONT 2.1
FONT -FontForge-Monoton-Book-R-Normal--12-120-72-72-P-80-ISO10646-1
SIZE 12 72 72
FONTBOUNDINGBOX 22 19 -2 -5
COMMENT "Generated by fontforge, http://fontforge.sourceforge.net"
COMMENT "Copyright (c) 2011 by vernon adams. All rights reserved."
STARTPROPERTIES 40
FOUNDRY "FontForge"
FAMILY_NAME "Monoton"
WEIGHT_NAME "Book"
SLANT "R"
SETWIDTH_NAME "Normal"
ADD_STYLE_NAME ""
PIXEL_SIZE 12
POINT_SIZE 120
RESOLUTION_X 72
RESOLUTION_Y 72
SPACING "P"
AVERAGE_WIDTH 80
CHARSET_REGISTRY "ISO10646"
CHARSET_ENCODING "1"
FONTNAME_REGISTRY ""
CHARSET_COLLECTIONS "ISO8859-2 ISO8859-9 ISO8859-4 ISO10646-1"
FONT_NAME "Monoton-Regular"
FACE_NAME "Monoton"
COPYRIGHT "Copyright (c) 2011 by vernon adams. All rights reserved."
FONT_VERSION "1.000"
FONT_ASCENT 10
FONT_DESCENT 2
UNDERLINE_POSITION -1
UNDERLINE_THICKNESS 1
X_HEIGHT 7
CAP_HEIGHT 9
DEFAULT_CHAR 1
RAW_ASCENT 799
RAW_DESCENT 200
NORM_SPACE 1
RELATIVE_WEIGHT 40
RELATIVE_SETWIDTH 50
SUPERSCRIPT_X 0
SUPERSCRIPT_Y 4
SUPERSCRIPT_SIZE 7
SUBSCRIPT_X 0
SUBSCRIPT_Y 0
SUBSCRIPT_SIZE 7
AVG_LOWERCASE_WIDTH 87
AVG_UPPERCASE_WIDTH 94
ENDPROPERTIES
CHARS 372
STARTCHAR glyph1.dup1
ENCODING 0
SWIDTH 108 0
DWIDTH 1 0
BBX 1 1 0 0
BITMAP
00
ENDCHAR
STARTCHAR uni0002
ENCODING 2
SWIDTH 108 0
DWIDTH 1 0
BBX 1 1 0 0
BITMAP
00
ENDCHAR
STARTCHAR uni0009
ENCODING 9
SWIDTH 108 0
DWIDTH 1 0
BBX 1 1 0 0
BITMAP
00
ENDCHAR
STARTCHAR uni000A
ENCODING 10
SWIDTH 108 0
DWIDTH 1 0
BBX 1 1 0 0
BITMAP
00
ENDCHAR
STARTCHAR uni000D
ENCODING 13
SWIDTH 108 0
DWIDTH 1 0
BBX 1 1 0 0
BITMAP
00
ENDCHAR
STARTCHAR space
ENCODING 32
SWIDTH 108 0
DWIDTH 1 0
BBX 1 1 0 0
BITMAP
00
ENDCHAR
STARTCHAR exclam
ENCODING 33
SWIDTH 336 0
DWIDTH 4 0
BBX 3 10 1 0
BITMAP
E0
E0
E0
E0
E0
E0
E0
00
E0
E0
ENDCHAR
STARTCHAR quotedbl
ENCODING 34
SWIDTH 538 0
DWIDTH 6 0
BBX 6 4 0 6
BITMAP
EC
EC
EC
EC
ENDCHAR
STARTCHAR numbersign
ENCODING 35
SWIDTH 1014 0
DWIDTH 12 0
BBX 12 11 0 -1
BITMAP
0EE0
3EB0
0DC0
7EF0
15C0
1940
1B80
7DE0
EFC0
3280
3300
ENDCHAR
STARTCHAR dollar
ENCODING 36
SWIDTH 686 0
DWIDTH 8 0
BBX 8 13 0 -2
BITMAP
18
3E
67
FC
E8
D6
7B
3D
3D
7B
DE
20
18
ENDCHAR
STARTCHAR percent
ENCODING 37
SWIDTH 1504 0
DWIDTH 18 0
BBX 18 11 0 -1
BITMAP
3C7000
6E6000
F5A000
DEEF00
F6B780
6EDD80
3D6EC0
01D7C0
015E80
018B80
038400
ENDCHAR
STARTCHAR ampersand
ENCODING 38
SWIDTH 1029 0
DWIDTH 12 0
BBX 12 10 0 0
BITMAP
1EE0
7EE0
D0E0
EEE0
7EF0
E0E0
FEF0
7F50
7EF0
3E70
ENDCHAR
STARTCHAR quotesingle
ENCODING 39
SWIDTH 257 0
DWIDTH 3 0
BBX 3 4 0 6
BITMAP
E0
E0
E0
E0
ENDCHAR
STARTCHAR parenleft
ENCODING 40
SWIDTH 410 0
DWIDTH 5 0
BBX 5 11 0 -1
BITMAP
38
60
78
E0
E0
E0
E0
E0
F8
60
18
ENDCHAR
STARTCHAR parenright
ENCODING 41
SWIDTH 408 0
DWIDTH 5 0
BBX 4 11 0 -1
BITMAP
E0
70
F0
30
30
30
30
70
B0
50
E0
ENDCHAR
STARTCHAR asterisk
ENCODING 42
SWIDTH 664 0
DWIDTH 8 0
BBX 8 7 0 1
BITMAP
5A
76
F7
5A
FF
5E
18
ENDCHAR
STARTCHAR plus
ENCODING 43
SWIDTH 601 0
DWIDTH 7 0
BBX 7 6 0 2
BITMAP
28
28
EE
EE
28
28
ENDCHAR
STARTCHAR comma
ENCODING 44
SWIDTH 252 0
DWIDTH 3 0
BBX 3 4 0 -2
BITMAP
E0
E0
A0
C0
ENDCHAR
STARTCHAR hyphen
ENCODING 45
SWIDTH 473 0
DWIDTH 6 0
BBX 4 2 1 4
BITMAP
F0
F0
ENDCHAR
STARTCHAR period
ENCODING 46
SWIDTH 255 0
DWIDTH 3 0
BBX 3 2 0 0
BITMAP
E0
E0
ENDCHAR
STARTCHAR slash
ENCODING 47
SWIDTH 447 0
DWIDTH 5 0
BBX 5 11 0 -1
BITMAP
18
28
38
28
30
50
70
50
60
A0
E0
ENDCHAR
STARTCHAR zero
ENCODING 48
SWIDTH 843 0
DWIDTH 10 0
BBX 10 10 0 0
BITMAP
3F00
5280
7F80
73C0
E2C0
D2C0
73C0
6D40
7F80
3F00
ENDCHAR
STARTCHAR one
ENCODING 49
SWIDTH 426 0
DWIDTH 5 0
BBX 5 10 0 0
BITMAP
F8
F8
38
38
38
38
38
38
38
38
ENDCHAR
STARTCHAR two
ENCODING 50
SWIDTH 583 0
DWIDTH 7 0
BBX 7 10 0 0
BITMAP
FC
4A
7E
1E
14
3C
78
F0
0C
FC
ENDCHAR
STARTCHAR three
ENCODING 51
SWIDTH 612 0
DWIDTH 7 0
BBX 7 10 0 0
BITMAP
FC
4A
7E
3E
0E
36
3E
7E
76
FC
ENDCHAR
STARTCHAR four
ENCODING 52
SWIDTH 622 0
DWIDTH 7 0
BBX 7 10 0 0
BITMAP
14
3C
28
38
6E
F6
FE
00
FE
06
ENDCHAR
STARTCHAR five
ENCODING 53
SWIDTH 691 0
DWIDTH 8 0
BBX 8 10 0 0
BITMAP
7E
7E
60
60
7E
7B
67
3F
7B
FE
ENDCHAR
STARTCHAR six
ENCODING 54
SWIDTH 781 0
DWIDTH 9 0
BBX 9 10 0 0
BITMAP
3F00
7100
FE00
F200
ED00
EF80
F380
7D80
6F80
3F00
ENDCHAR
STARTCHAR seven
ENCODING 55
SWIDTH 631 0
DWIDTH 8 0
BBX 7 10 0 0
BITMAP
FE
F6
16
1E
1A
1C
2C
3C
34
38
ENDCHAR
STARTCHAR eight
ENCODING 56
SWIDTH 808 0
DWIDTH 10 0
BBX 9 10 0 0
BITMAP
3F00
6380
FD80
EF80
D380
7D80
FF80
FF80
BF80
7F00
ENDCHAR
STARTCHAR nine
ENCODING 57
SWIDTH 782 0
DWIDTH 9 0
BBX 9 10 0 0
BITMAP
3E00
7700
EF80
D380
6D80
5580
3D80
1F80
7D00
7F00
ENDCHAR
STARTCHAR colon
ENCODING 58
SWIDTH 262 0
DWIDTH 3 0
BBX 2 5 1 2
BITMAP
C0
C0
00
C0
C0
ENDCHAR
STARTCHAR semicolon
ENCODING 59
SWIDTH 261 0
DWIDTH 3 0
BBX 2 7 1 0
BITMAP
C0
C0
00
C0
C0
C0
80
ENDCHAR
STARTCHAR less
ENCODING 60
SWIDTH 670 0
DWIDTH 8 0
BBX 8 9 0 0
BITMAP
03
1E
7D
9E
F8
EF
37
0F
01
ENDCHAR
STARTCHAR equal
ENCODING 61
SWIDTH 473 0
DWIDTH 6 0
BBX 4 5 1 2
BITMAP
F0
F0
00
F0
F0
ENDCHAR
STARTCHAR greater
ENCODING 62
SWIDTH 670 0
DWIDTH 8 0
BBX 8 9 0 0
BITMAP
C0
3C
FA
6D
1F
F7
EC
F0
80
ENDCHAR
STARTCHAR question
ENCODING 63
SWIDTH 693 0
DWIDTH 8 0
BBX 8 10 0 0
BITMAP
7E
E5
3F
07
6F
66
6C
00
70
70
ENDCHAR
STARTCHAR at
ENCODING 64
SWIDTH 1076 0
DWIDTH 13 0
BBX 13 12 0 -1
BITMAP
0A00
17C0
3FE0
7270
EFA8
EFB8
FDB8
F7B8
5F68
6EF0
3900
1F00
ENDCHAR
STARTCHAR A
ENCODING 65
SWIDTH 936 0
DWIDTH 11 0
BBX 11 10 0 0
BITMAP
0A00
1700
1B00
3700
3E80
2A80
3FC0
69C0
6FC0
F160
ENDCHAR
STARTCHAR B
ENCODING 66
SWIDTH 862 0
DWIDTH 10 0
BBX 9 10 1 0
BITMAP
FE00
FF00
C380
FF80
FE80
E380
FF80
FF80
FE80
FF00
ENDCHAR
STARTCHAR C
ENCODING 67
SWIDTH 852 0
DWIDTH 10 0
BBX 10 10 0 0
BITMAP
1F00
3BC0
7F80
7100
E000
D000
7100
5F80
7EC0
3F80
ENDCHAR
STARTCHAR D
ENCODING 68
SWIDTH 886 0
DWIDTH 11 0
BBX 9 10 1 0
BITMAP
FC00
FF00
C580
FF80
E280
E380
E380
DF80
BF00
FE00
ENDCHAR
STARTCHAR E
ENCODING 69
SWIDTH 706 0
DWIDTH 8 0
BBX 7 10 1 0
BITMAP
FE
FE
E0
E0
F8
F8
E0
E0
FE
FE
ENDCHAR
STARTCHAR F
ENCODING 70
SWIDTH 683 0
DWIDTH 8 0
BBX 7 10 1 0
BITMAP
FE
FE
E0
E0
E0
FE
FE
E0
E0
E0
ENDCHAR
STARTCHAR G
ENCODING 71
SWIDTH 908 0
DWIDTH 11 0
BBX 10 10 0 0
BITMAP
1F00
3BC0
7F80
7100
D000
D1C0
F1C0
5FC0
6FC0
3FC0
ENDCHAR
STARTCHAR H
ENCODING 72
SWIDTH 901 0
DWIDTH 11 0
BBX 9 10 1 0
BITMAP
E380
E380
E380
E380
FF80
FF80
E380
E380
E380
E380
ENDCHAR
STARTCHAR I
ENCODING 73
SWIDTH 338 0
DWIDTH 4 0
BBX 3 10 1 0
BITMAP
E0
E0
E0
E0
E0
E0
E0
E0
E0
E0
ENDCHAR
STARTCHAR J
ENCODING 74
SWIDTH 434 0
DWIDTH 5 0
BBX 5 10 0 0
BITMAP
58
58
58
58
58
58
58
F8
F0
F0
ENDCHAR
STARTCHAR K
ENCODING 75
SWIDTH 815 0
DWIDTH 10 0
BBX 9 10 1 0
BITMAP
E780
EB00
ED00
F600
FC00
EC00
FE00
EA00
EF00
E780
ENDCHAR
STARTCHAR L
ENCODING 76
SWIDTH 604 0
DWIDTH 7 0
BBX 6 10 1 0
BITMAP
E0
E0
E0
E0
E0
E0
E0
E0
FC
FC
ENDCHAR
STARTCHAR M
ENCODING 77
SWIDTH 920 0
DWIDTH 11 0
BBX 9 10 1 0
BITMAP
C180
E380
E280
F780
F580
FF80
FD80
E180
E180
E180
ENDCHAR
STARTCHAR N
ENCODING 78
SWIDTH 877 0
DWIDTH 11 0
BBX 9 10 1 0
BITMAP
E380
F380
AB80
DB80
FD80
FD80
FF80
EB80
EF80
E780
ENDCHAR
STARTCHAR O
ENCODING 79
SWIDTH 933 0
DWIDTH 11 0
BBX 11 10 0 0
BITMAP
1F00
3BC0
7FC0
71E0
E0A0
D0A0
71E0
5FA0
7EC0
3F80
ENDCHAR
STARTCHAR P
ENCODING 80
SWIDTH 850 0
DWIDTH 10 0
BBX 9 10 1 0
BITMAP
FC00
FF00
C380
FE80
E580
FF00
FF00
FE00
E000
E000
ENDCHAR
STARTCHAR Q
ENCODING 81
SWIDTH 937 0
DWIDTH 11 0
BBX 11 11 0 -1
BITMAP
1F00
3BC0
7FC0
71E0
E0A0
D2A0
77E0
5EA0
7FC0
34C0
0B80
ENDCHAR
STARTCHAR R
ENCODING 82
SWIDTH 843 0
DWIDTH 10 0
BBX 9 10 1 0
BITMAP
FC00
FF00
C380
FD80
FF80
FE80
E300
FD00
EB00
E700
ENDCHAR
STARTCHAR S
ENCODING 83
SWIDTH 682 0
DWIDTH 8 0
BBX 8 10 0 0
BITMAP
3E
67
FC
D8
76
7E
1B
3B
7E
FE
ENDCHAR
STARTCHAR T
ENCODING 84
SWIDTH 591 0
DWIDTH 7 0
BBX 7 10 0 0
BITMAP
FE
FE
38
38
38
38
38
38
38
38
ENDCHAR
STARTCHAR U
ENCODING 85
SWIDTH 905 0
DWIDTH 11 0
BBX 10 10 0 0
BITMAP
E1C0
E1C0
E1C0
E1C0
E1C0
E1C0
71C0
5FC0
6F40
3F80
ENDCHAR
STARTCHAR V
ENCODING 86
SWIDTH 940 0
DWIDTH 11 0
BBX 11 10 0 0
BITMAP
E0E0
D1E0
5140
7AC0
3B40
3B80
2F80
1500
1B00
0E00
ENDCHAR
STARTCHAR W
ENCODING 87
SWIDTH 1161 0
DWIDTH 14 0
BBX 14 10 0 0
BITMAP
D71C
75B4
55A8
5768
7DF8
5768
36B0
3FB0
3AF0
1CD0
ENDCHAR
STARTCHAR X
ENCODING 88
SWIDTH 876 0
DWIDTH 11 0
BBX 10 10 0 0
BITMAP
F3C0
5280
7F80
3F00
1500
1F00
3F00
3F80
7A80
F3C0
ENDCHAR
STARTCHAR Y
ENCODING 89
SWIDTH 789 0
DWIDTH 9 0
BBX 9 10 0 0
BITMAP
D380
B580
6E80
5B00
2D00
3A00
1E00
1A00
1A00
1A00
ENDCHAR
STARTCHAR Z
ENCODING 90
SWIDTH 854 0
DWIDTH 10 0
BBX 10 10 0 0
BITMAP
FFC0
FEC0
03C0
FFC0
1F80
3F00
FC00
FBC0
EFC0
FFC0
ENDCHAR
STARTCHAR bracketleft
ENCODING 91
SWIDTH 320 0
DWIDTH 4 0
BBX 3 11 1 -1
BITMAP
E0
A0
C0
C0
C0
C0
C0
C0
E0
80
E0
ENDCHAR
STARTCHAR backslash
ENCODING 92
SWIDTH 448 0
DWIDTH 5 0
BBX 5 11 0 -1
BITMAP
C0
60
60
50
60
30
30
28
30
18
18
ENDCHAR
STARTCHAR bracketright
ENCODING 93
SWIDTH 319 0
DWIDTH 4 0
BBX 3 11 0 -1
BITMAP
E0
A0
60
60
60
60
60
60
E0
20
E0
ENDCHAR
STARTCHAR asciicircum
ENCODING 94
SWIDTH 475 0
DWIDTH 6 0
BBX 5 4 0 4
BITMAP
30
68
58
D8
ENDCHAR
STARTCHAR underscore
ENCODING 95
SWIDTH 511 0
DWIDTH 6 0
BBX 5 2 1 -2
BITMAP
F8
F8
ENDCHAR
STARTCHAR grave
ENCODING 96
SWIDTH 472 0
DWIDTH 6 0
BBX 5 2 0 9
BITMAP
E0
38
ENDCHAR
STARTCHAR a
ENCODING 97
SWIDTH 832 0
DWIDTH 10 0
BBX 9 9 0 0
BITMAP
0C00
3F00
7380
7F80
D180
E180
FD80
7D80
3D80
ENDCHAR
STARTCHAR b
ENCODING 98
SWIDTH 720 0
DWIDTH 9 0
BBX 7 8 1 0
BITMAP
FE
FA
C6
FE
FE
C6
FE
FC
ENDCHAR
STARTCHAR c
ENCODING 99
SWIDTH 736 0
DWIDTH 9 0
BBX 9 9 0 0
BITMAP
1E00
7380
7F00
7200
D000
F000
EE00
7D80
3F00
ENDCHAR
STARTCHAR d
ENCODING 100
SWIDTH 833 0
DWIDTH 10 0
BBX 9 8 1 0
BITMAP
FE00
FB00
FE80
E380
E780
DD00
BF00
FE00
ENDCHAR
STARTCHAR e
ENCODING 101
SWIDTH 666 0
DWIDTH 8 0
BBX 7 8 1 0
BITMAP
FE
FE
FC
E0
FC
E0
FE
FE
ENDCHAR
STARTCHAR f
ENCODING 102
SWIDTH 625 0
DWIDTH 8 0
BBX 6 8 1 0
BITMAP
FC
FC
E0
FC
FC
E0
E0
E0
ENDCHAR
STARTCHAR g
ENCODING 103
SWIDTH 827 0
DWIDTH 10 0
BBX 9 9 0 0
BITMAP
1E00
7380
7F00
7200
D000
F380
EF80
7F80
3F80
ENDCHAR
STARTCHAR h
ENCODING 104
SWIDTH 830 0
DWIDTH 10 0
BBX 8 8 1 0
BITMAP
E7
E7
E7
FF
FF
E7
E7
E7
ENDCHAR
STARTCHAR i
ENCODING 105
SWIDTH 337 0
DWIDTH 4 0
BBX 3 8 1 0
BITMAP
E0
E0
E0
E0
E0
E0
E0
E0
ENDCHAR
STARTCHAR j
ENCODING 106
SWIDTH 393 0
DWIDTH 5 0
BBX 4 9 0 -1
BITMAP
70
70
70
70
70
70
F0
B0
E0
ENDCHAR
STARTCHAR k
ENCODING 107
SWIDTH 801 0
DWIDTH 10 0
BBX 8 8 1 0
BITMAP
EF
EE
FE
EC
FC
FE
EF
E7
ENDCHAR
STARTCHAR l
ENCODING 108
SWIDTH 583 0
DWIDTH 7 0
BBX 6 8 1 0
BITMAP
E0
E0
E0
E0
E0
E0
FC
FC
ENDCHAR
STARTCHAR m
ENCODING 109
SWIDTH 1167 0
DWIDTH 14 0
BBX 14 9 0 0
BITMAP
3CF0
57A8
ED54
F7B8
E31C
E31C
E31C
E31C
E31C
ENDCHAR
STARTCHAR n
ENCODING 110
SWIDTH 787 0
DWIDTH 9 0
BBX 8 8 1 0
BITMAP
F5
F5
FD
D5
FD
D5
DF
CF
ENDCHAR
STARTCHAR o
ENCODING 111
SWIDTH 833 0
DWIDTH 10 0
BBX 10 9 0 0
BITMAP
1E00
7300
7F80
7380
D1C0
F3C0
ED40
7F80
3F00
ENDCHAR
STARTCHAR p
ENCODING 112
SWIDTH 781 0
DWIDTH 9 0
BBX 8 8 1 0
BITMAP
FE
FF
FB
FD
E3
FE
E0
E0
ENDCHAR
STARTCHAR q
ENCODING 113
SWIDTH 788 0
DWIDTH 9 0
BBX 9 9 0 -1
BITMAP
3F80
5E80
FD80
D280
FD80
6D80
3280
0E80
0280
ENDCHAR
STARTCHAR r
ENCODING 114
SWIDTH 831 0
DWIDTH 10 0
BBX 9 8 1 0
BITMAP
FF00
FD00
FF80
FF80
E300
FE00
EA00
E700
ENDCHAR
STARTCHAR s
ENCODING 115
SWIDTH 683 0
DWIDTH 8 0
BBX 8 9 0 0
BITMAP
1C
7F
E6
F8
A6
7B
05
FB
7E
ENDCHAR
STARTCHAR t
ENCODING 116
SWIDTH 588 0
DWIDTH 7 0
BBX 7 8 0 0
BITMAP
FE
FE
38
38
38
38
38
38
ENDCHAR
STARTCHAR u
ENCODING 117
SWIDTH 795 0
DWIDTH 10 0
BBX 9 8 0 0
BITMAP
E380
E380
E380
E380
E380
FF80
7E80
3F00
ENDCHAR
STARTCHAR v
ENCODING 118
SWIDTH 855 0
DWIDTH 10 0
BBX 10 8 0 0
BITMAP
F1C0
5280
7E80
6F80
3F00
1700
1D00
1E00
ENDCHAR
STARTCHAR w
ENCODING 119
SWIDTH 1129 0
DWIDTH 14 0
BBX 13 8 0 0
BITMAP
E6B8
E6B8
E6B8
E6B8
E6B8
7AF8
6F58
3FF0
ENDCHAR
STARTCHAR x
ENCODING 120
SWIDTH 790 0
DWIDTH 9 0
BBX 9 8 0 0
BITMAP
F780
6F00
3500
1E00
3E00
2B00
7E80
F780
ENDCHAR
STARTCHAR y
ENCODING 121
SWIDTH 733 0
DWIDTH 9 0
BBX 9 8 0 0
BITMAP
F780
7B00
5D00
3600
1A00
1C00
1C00
1C00
ENDCHAR
STARTCHAR z
ENCODING 122
SWIDTH 714 0
DWIDTH 9 0
BBX 8 8 0 0
BITMAP
FF
F5
1E
3C
3C
78
AF
FF
ENDCHAR
STARTCHAR braceleft
ENCODING 123
SWIDTH 396 0
DWIDTH 5 0
BBX 4 13 0 -3
BITMAP
30
70
60
60
60
E0
E0
60
60
60
50
70
10
ENDCHAR
STARTCHAR bar
ENCODING 124
SWIDTH 266 0
DWIDTH 3 0
BBX 2 11 1 -1
BITMAP
C0
C0
C0
C0
C0
C0
C0
C0
C0
C0
C0
ENDCHAR
STARTCHAR braceright
ENCODING 125
SWIDTH 396 0
DWIDTH 5 0
BBX 4 13 0 -3
BITMAP
E0
E0
30
30
30
30
60
30
30
30
F0
E0
80
ENDCHAR
STARTCHAR asciitilde
ENCODING 126
SWIDTH 665 0
DWIDTH 8 0
BBX 8 2 0 7
BITMAP
7B
DF
ENDCHAR
STARTCHAR uni00A0
ENCODING 160
SWIDTH 108 0
DWIDTH 1 0
BBX 1 1 0 0
BITMAP
00
ENDCHAR
STARTCHAR exclamdown
ENCODING 161
SWIDTH 336 0
DWIDTH 4 0
BBX 3 10 1 0
BITMAP
E0
E0
E0
E0
E0
E0
E0
00
E0
E0
ENDCHAR
STARTCHAR cent
ENCODING 162
SWIDTH 708 0
DWIDTH 9 0
BBX 8 12 0 -1
BITMAP
08
08
36
6B
FE
E0
E0
BE
7F
3A
14
08
ENDCHAR
STARTCHAR sterling
ENCODING 163
SWIDTH 689 0
DWIDTH 8 0
BBX 8 10 0 0
BITMAP
3E
77
7C
E0
EE
EE
E0
E0
FE
FE
ENDCHAR
STARTCHAR currency
ENCODING 164
SWIDTH 715 0
DWIDTH 9 0
BBX 8 9 0 0
BITMAP
62
DF
7E
62
42
62
56
FF
63
ENDCHAR
STARTCHAR yen
ENCODING 165
SWIDTH 796 0
DWIDTH 10 0
BBX 9 10 0 0
BITMAP
D380
7580
6E80
5D00
3F00
3A00
1C00
7B00
7B00
1A00
ENDCHAR
STARTCHAR brokenbar
ENCODING 166
SWIDTH 263 0
DWIDTH 3 0
BBX 2 11 1 -1
BITMAP
C0
C0
C0
C0
C0
00
00
C0
C0
C0
C0
ENDCHAR
STARTCHAR section
ENCODING 167
SWIDTH 108 0
DWIDTH 1 0
BBX 1 1 0 0
BITMAP
00
ENDCHAR
STARTCHAR dieresis
ENCODING 168
SWIDTH 556 0
DWIDTH 7 0
BBX 6 1 0 9
BITMAP
EC
ENDCHAR
STARTCHAR copyright
ENCODING 169
SWIDTH 869 0
DWIDTH 10 0
BBX 10 10 0 0
BITMAP
1F00
2C80
5340
A040
A040
A040
5140
4E80
3100
0E00
ENDCHAR
STARTCHAR ordfeminine
ENCODING 170
SWIDTH 833 0
DWIDTH 10 0
BBX 10 9 0 0
BITMAP
0C00
3F00
7380
7F40
E1C0
F1C0
EDC0
7DC0
3DC0
ENDCHAR
STARTCHAR guillemotleft
ENCODING 171
SWIDTH 911 0
DWIDTH 11 0
BBX 10 6 0 1
BITMAP
38C0
DFC0
B280
EBC0
39C0
0840
ENDCHAR
STARTCHAR logicalnot
ENCODING 172
SWIDTH 718 0
DWIDTH 9 0
BBX 8 3 0 3
BITMAP
FF
FD
03
ENDCHAR
STARTCHAR registered
ENCODING 174
SWIDTH 869 0
DWIDTH 10 0
BBX 10 10 0 0
BITMAP
1F00
2080
5E40
9140
9A40
9440
5240
4080
3100
0E00
ENDCHAR
STARTCHAR degree
ENCODING 176
SWIDTH 330 0
DWIDTH 4 0
BBX 4 3 0 9
BITMAP
60
B0
60
ENDCHAR
STARTCHAR plusminus
ENCODING 177
SWIDTH 598 0
DWIDTH 7 0
BBX 7 8 0 0
BITMAP
28
28
EE
EE
28
28
7C
7C
ENDCHAR
STARTCHAR uni00B2
ENCODING 178
SWIDTH 435 0
DWIDTH 5 0
BBX 5 8 0 2
BITMAP
70
78
18
30
20
60
00
F8
ENDCHAR
STARTCHAR uni00B3
ENCODING 179
SWIDTH 515 0
DWIDTH 6 0
BBX 6 8 0 2
BITMAP
70
F8
98
38
34
3C
7C
F8
ENDCHAR
STARTCHAR acute
ENCODING 180
SWIDTH 472 0
DWIDTH 6 0
BBX 5 2 0 9
BITMAP
18
E0
ENDCHAR
STARTCHAR uni00B5
ENCODING 181
SWIDTH 802 0
DWIDTH 10 0
BBX 8 9 1 -1
BITMAP
E5
E5
E5
E5
E5
FF
FA
FE
E0
ENDCHAR
STARTCHAR paragraph
ENCODING 182
SWIDTH 676 0
DWIDTH 8 0
BBX 8 9 0 -1
BITMAP
7F
FF
FF
FF
67
3F
07
07
07
ENDCHAR
STARTCHAR periodcentered
ENCODING 183
SWIDTH 260 0
DWIDTH 3 0
BBX 3 2 0 5
BITMAP
E0
E0
ENDCHAR
STARTCHAR cedilla
ENCODING 184
SWIDTH 321 0
DWIDTH 4 0
BBX 2 4 1 -5
BITMAP
C0
80
C0
40
ENDCHAR
STARTCHAR uni00B9
ENCODING 185
SWIDTH 359 0
DWIDTH 4 0
BBX 4 7 0 3
BITMAP
F0
F0
50
50
50
50
50
ENDCHAR
STARTCHAR ordmasculine
ENCODING 186
SWIDTH 835 0
DWIDTH 10 0
BBX 10 9 0 0
BITMAP
1E00
3300
7F80
7380
D2C0
F3C0
ED40
7F80
3F00
ENDCHAR
STARTCHAR guillemotright
ENCODING 187
SWIDTH 912 0
DWIDTH 11 0
BBX 11 6 0 1
BITMAP
E380
FF60
69A0
FAE0
F380
8400
ENDCHAR
STARTCHAR onequarter
ENCODING 188
SWIDTH 1236 0
DWIDTH 15 0
BBX 15 11 0 -1
BITMAP
F280
F380
3318
3338
3528
3774
3600
067E
0A7E
0E04
0C00
ENDCHAR
STARTCHAR onehalf
ENCODING 189
SWIDTH 1154 0
DWIDTH 14 0
BBX 14 11 0 -1
BITMAP
F280
F380
3338
3374
3508
3718
3630
0620
0A60
0E78
0C00
ENDCHAR
STARTCHAR threequarters
ENCODING 190
SWIDTH 1345 0
DWIDTH 16 0
BBX 16 11 0 -1
BITMAP
70E0
F8A0
98CE
38DC
35DC
3D7A
7D80
7ABF
83BF
0282
0300
ENDCHAR
STARTCHAR questiondown
ENCODING 191
SWIDTH 693 0
DWIDTH 8 0
BBX 8 10 0 0
BITMAP
7E
E5
3F
07
6F
66
6C
00
70
70
ENDCHAR
STARTCHAR Agrave
ENCODING 192
SWIDTH 936 0
DWIDTH 11 0
BBX 11 13 0 0
BITMAP
3000
0E00
0400
0A00
1700
1B00
3700
3E80
2A80
3FC0
69C0
6FC0
F160
ENDCHAR
STARTCHAR Aacute
ENCODING 193
SWIDTH 936 0
DWIDTH 11 0
BBX 11 13 0 0
BITMAP
01C0
0700
0000
0A00
1700
1B00
3700
3E80
2A80
3FC0
69C0
6FC0
F160
ENDCHAR
STARTCHAR Acircumflex
ENCODING 194
SWIDTH 936 0
DWIDTH 11 0
BBX 11 14 0 0
BITMAP
0400
0A00
0A00
0000
0A00
1700
1B00
3700
3E80
2A80
3FC0
69C0
6FC0
F160
ENDCHAR
STARTCHAR Atilde
ENCODING 195
SWIDTH 936 0
DWIDTH 11 0
BBX 11 13 0 0
BITMAP
1E80
3180
0F00
0A00
1700
1B00
3700
3E80
2A80
3FC0
69C0
6FC0
F160
ENDCHAR
STARTCHAR Adieresis
ENCODING 196
SWIDTH 936 0
DWIDTH 11 0
BBX 11 12 0 0
BITMAP
2B00
0000
0A00
1700
1B00
3700
3E80
2A80
3FC0
69C0
6FC0
F160
ENDCHAR
STARTCHAR Aring
ENCODING 197
SWIDTH 936 0
DWIDTH 11 0
BBX 11 13 0 0
BITMAP
0E00
0A00
0400
0A00
1700
1B00
3700
3E80
2A80
3FC0
69C0
6FC0
F160
ENDCHAR
STARTCHAR AE
ENCODING 198
SWIDTH 1198 0
DWIDTH 14 0
BBX 14 10 0 0
BITMAP
0BFC
17FC
1B00
3700
3EF8
2AB8
3FC0
69C0
6FFC
F17C
ENDCHAR
STARTCHAR Ccedilla
ENCODING 199
SWIDTH 852 0
DWIDTH 10 0
BBX 10 15 0 -5
BITMAP
1F00
3BC0
7F80
7100
E000
D000
7100
5F80
7EC0
3580
0A00
0A00
0C00
1400
0C00
ENDCHAR
STARTCHAR Egrave
ENCODING 200
SWIDTH 706 0
DWIDTH 8 0
BBX 8 13 0 0
BITMAP
E0
38
00
7F
7F
70
70
7C
7C
70
70
7F
7F
ENDCHAR
STARTCHAR Eacute
ENCODING 201
SWIDTH 706 0
DWIDTH 8 0
BBX 7 13 1 0
BITMAP
0E
3C
10
FE
FE
E0
E0
F8
F8
E0
E0
FE
FE
ENDCHAR
STARTCHAR Ecircumflex
ENCODING 202
SWIDTH 706 0
DWIDTH 8 0
BBX 7 14 1 0
BITMAP
30
30
68
00
FE
FE
E0
E0
F8
F8
E0
E0
FE
FE
ENDCHAR
STARTCHAR Edieresis
ENCODING 203
SWIDTH 706 0
DWIDTH 8 0
BBX 7 12 1 0
BITMAP
EC
00
FE
FE
E0
E0
F8
F8
E0
E0
FE
FE
ENDCHAR
STARTCHAR Igrave
ENCODING 204
SWIDTH 338 0
DWIDTH 4 0
BBX 6 13 -2 0
BITMAP
E0
78
00
1C
1C
1C
1C
1C
1C
1C
1C
1C
1C
ENDCHAR
STARTCHAR Iacute
ENCODING 205
SWIDTH 338 0
DWIDTH 4 0
BBX 5 13 1 0
BITMAP
38
F0
40
E0
E0
E0
E0
E0
E0
E0
E0
E0
E0
ENDCHAR
STARTCHAR Icircumflex
ENCODING 206
SWIDTH 338 0
DWIDTH 4 0
BBX 4 14 0 0
BITMAP
60
50
F0
00
70
70
70
70
70
70
70
70
70
70
ENDCHAR
STARTCHAR Idieresis
ENCODING 207
SWIDTH 338 0
DWIDTH 4 0
BBX 6 12 -1 0
BITMAP
B4
00
38
38
38
38
38
38
38
38
38
38
ENDCHAR
STARTCHAR Eth
ENCODING 208
SWIDTH 905 0
DWIDTH 11 0
BBX 10 10 0 0
BITMAP
7E00
BF80
A1C0
BF40
F9C0
49C0
B140
AFC0
DF80
FF00
ENDCHAR
STARTCHAR Ntilde
ENCODING 209
SWIDTH 877 0
DWIDTH 11 0
BBX 9 13 1 0
BITMAP
7D00
C300
1C00
E380
F380
AB80
DB80
FD80
FD80
FF80
EB80
EF80
E780
ENDCHAR
STARTCHAR Ograve
ENCODING 210
SWIDTH 933 0
DWIDTH 11 0
BBX 11 13 0 0
BITMAP
3000
0E00
0400
1F00
3BC0
7FC0
71E0
E0A0
D0A0
71E0
5FA0
7EC0
3F80
ENDCHAR
STARTCHAR Oacute
ENCODING 211
SWIDTH 933 0
DWIDTH 11 0
BBX 11 13 0 0
BITMAP
01C0
0700
0000
1F00
3BC0
7FC0
71E0
E0A0
D0A0
71E0
5FA0
7EC0
3F80
ENDCHAR
STARTCHAR Ocircumflex
ENCODING 212
SWIDTH 933 0
DWIDTH 11 0
BBX 11 14 0 0
BITMAP
0400
0E00
0A00
0000
1F00
3BC0
7FC0
71E0
E0A0
D0A0
71E0
5FA0
7EC0
3F80
ENDCHAR
STARTCHAR Otilde
ENCODING 213
SWIDTH 933 0
DWIDTH 11 0
BBX 11 13 0 0
BITMAP
1E80
3180
0F00
1F00
3BC0
7FC0
71E0
E0A0
D0A0
71E0
5FA0
7EC0
3F80
ENDCHAR
STARTCHAR Odieresis
ENCODING 214
SWIDTH 933 0
DWIDTH 11 0
BBX 11 12 0 0
BITMAP
2B00
0000
1F00
3BC0
7FC0
71E0
E0A0
D0A0
71E0
5FA0
7EC0
3F80
ENDCHAR
STARTCHAR multiply
ENCODING 215
SWIDTH 790 0
DWIDTH 9 0
BBX 9 8 0 0
BITMAP
F780
6F00
3500
1E00
3E00
2B00
7E80
F780
ENDCHAR
STARTCHAR Oslash
ENCODING 216
SWIDTH 938 0
DWIDTH 11 0
BBX 11 13 0 -2
BITMAP
01C0
1F80
3B40
7FC0
71E0
E0A0
D0A0
71E0
5FA0
7EC0
2580
7A00
2000
ENDCHAR
STARTCHAR Ugrave
ENCODING 217
SWIDTH 905 0
DWIDTH 11 0
BBX 10 13 0 0
BITMAP
7000
1C00
0000
E1C0
E1C0
E1C0
E1C0
E1C0
E1C0
71C0
5FC0
6F40
3F80
ENDCHAR
STARTCHAR Uacute
ENCODING 218
SWIDTH 905 0
DWIDTH 11 0
BBX 10 13 0 0
BITMAP
0180
0E00
0400
E1C0
E1C0
E1C0
E1C0
E1C0
E1C0
71C0
5FC0
6F40
3F80
ENDCHAR
STARTCHAR Ucircumflex
ENCODING 219
SWIDTH 905 0
DWIDTH 11 0
BBX 10 14 0 0
BITMAP
0A00
0E00
1E00
0000
E1C0
E1C0
E1C0
E1C0
E1C0
E1C0
71C0
5FC0
6F40
3F80
ENDCHAR
STARTCHAR Udieresis
ENCODING 220
SWIDTH 905 0
DWIDTH 11 0
BBX 10 12 0 0
BITMAP
1A80
0000
E1C0
E1C0
E1C0
E1C0
E1C0
E1C0
71C0
5FC0
6F40
3F80
ENDCHAR
STARTCHAR Yacute
ENCODING 221
SWIDTH 789 0
DWIDTH 9 0
BBX 9 13 0 0
BITMAP
0380
0E00
0000
D380
B580
6E80
5B00
2D00
3A00
1E00
1A00
1A00
1A00
ENDCHAR
STARTCHAR Thorn
ENCODING 222
SWIDTH 798 0
DWIDTH 10 0
BBX 8 11 1 -1
BITMAP
E0
FC
FE
FF
E5
E7
FF
FA
E6
F8
E0
ENDCHAR
STARTCHAR germandbls
ENCODING 223
SWIDTH 826 0
DWIDTH 10 0
BBX 10 11 0 -1
BITMAP
3F00
6380
7D80
EF40
E380
EF40
E1C0
EF40
EF80
EF00
E000
ENDCHAR
STARTCHAR agrave
ENCODING 224
SWIDTH 832 0
DWIDTH 10 0
BBX 9 12 0 0
BITMAP
7000
3C00
0800
0C00
3F00
7380
7F80
D180
E180
FD80
7D80
3D80
ENDCHAR
STARTCHAR aacute
ENCODING 225
SWIDTH 832 0
DWIDTH 10 0
BBX 9 12 0 0
BITMAP
0380
0E00
0000
0C00
3F00
7380
7F80
D180
E180
FD80
7D80
3D80
ENDCHAR
STARTCHAR acircumflex
ENCODING 226
SWIDTH 832 0
DWIDTH 10 0
BBX 9 12 0 0
BITMAP
0C00
1C00
1E00
0C00
3F00
7380
7F80
D180
E180
FD80
7D80
3D80
ENDCHAR
STARTCHAR atilde
ENCODING 227
SWIDTH 832 0
DWIDTH 10 0
BBX 9 12 0 0
BITMAP
3D00
6300
1E00
0C00
3F00
7380
7F80
D180
E180
FD80
7D80
3D80
ENDCHAR
STARTCHAR adieresis
ENCODING 228
SWIDTH 832 0
DWIDTH 10 0
BBX 9 11 0 0
BITMAP
3300
0000
0C00
3F00
7380
7F80
D180
E180
FD80
7D80
3D80
ENDCHAR
STARTCHAR aring
ENCODING 229
SWIDTH 832 0
DWIDTH 10 0
BBX 9 12 0 0
BITMAP
1C00
1600
0C00
0C00
3F00
7380
7F80
D180
E180
FD80
7D80
3D80
ENDCHAR
STARTCHAR ae
ENCODING 230
SWIDTH 1166 0
DWIDTH 14 0
BBX 14 9 0 0
BITMAP
0C00
3FFC
73FC
7F78
D1C0
E1F8
FDC0
7DFC
3DFC
ENDCHAR
STARTCHAR ccedilla
ENCODING 231
SWIDTH 736 0
DWIDTH 9 0
BBX 9 14 0 -5
BITMAP
1E00
7380
7F00
7200
D000
F000
EE00
7D80
3F00
0000
1C00
1800
1C00
0400
ENDCHAR
STARTCHAR egrave
ENCODING 232
SWIDTH 666 0
DWIDTH 8 0
BBX 8 12 0 0
BITMAP
E0
78
00
00
7F
7F
7E
70
7E
70
7F
7F
ENDCHAR
STARTCHAR eacute
ENCODING 233
SWIDTH 666 0
DWIDTH 8 0
BBX 7 12 1 0
BITMAP
0E
3C
10
00
FE
FE
FC
E0
FC
E0
FE
FE
ENDCHAR
STARTCHAR ecircumflex
ENCODING 234
SWIDTH 666 0
DWIDTH 8 0
BBX 7 12 1 0
BITMAP
30
28
78
00
FE
FE
FC
E0
FC
E0
FE
FE
ENDCHAR
STARTCHAR edieresis
ENCODING 235
SWIDTH 666 0
DWIDTH 8 0
BBX 7 11 1 0
BITMAP
B4
00
00
FE
FE
FC
E0
FC
E0
FE
FE
ENDCHAR
STARTCHAR igrave
ENCODING 236
SWIDTH 337 0
DWIDTH 4 0
BBX 6 12 -2 0
BITMAP
E0
78
00
00
1C
1C
1C
1C
1C
1C
1C
1C
ENDCHAR
STARTCHAR iacute
ENCODING 237
SWIDTH 337 0
DWIDTH 4 0
BBX 5 12 1 0
BITMAP
38
F0
40
00
E0
E0
E0
E0
E0
E0
E0
E0
ENDCHAR
STARTCHAR icircumflex
ENCODING 238
SWIDTH 337 0
DWIDTH 4 0
BBX 4 12 0 0
BITMAP
60
50
F0
00
70
70
70
70
70
70
70
70
ENDCHAR
STARTCHAR idieresis
ENCODING 239
SWIDTH 337 0
DWIDTH 4 0
BBX 6 11 -1 0
BITMAP
B4
00
00
38
38
38
38
38
38
38
38
ENDCHAR
STARTCHAR eth
ENCODING 240
SWIDTH 783 0
DWIDTH 9 0
BBX 9 10 0 0
BITMAP
7E00
3700
1F80
0280
7F80
A780
FD80
FF80
DD00
7F00
ENDCHAR
STARTCHAR ntilde
ENCODING 241
SWIDTH 787 0
DWIDTH 9 0
BBX 8 12 1 0
BITMAP
7A
C6
3C
00
F5
F5
FD
D5
FD
D5
DF
CF
ENDCHAR
STARTCHAR ograve
ENCODING 242
SWIDTH 833 0
DWIDTH 10 0
BBX 10 12 0 0
BITMAP
7000
3C00
0800
1E00
7300
7F80
7380
D1C0
F3C0
ED40
7F80
3F00
ENDCHAR
STARTCHAR oacute
ENCODING 243
SWIDTH 833 0
DWIDTH 10 0
BBX 10 12 0 0
BITMAP
0380
0E00
0000
1E00
7300
7F80
7380
D1C0
F3C0
ED40
7F80
3F00
ENDCHAR
STARTCHAR ocircumflex
ENCODING 244
SWIDTH 833 0
DWIDTH 10 0
BBX 10 12 0 0
BITMAP
0C00
1400
1E00
1E00
7300
7F80
7380
D1C0
F3C0
ED40
7F80
3F00
ENDCHAR
STARTCHAR otilde
ENCODING 245
SWIDTH 833 0
DWIDTH 10 0
BBX 10 12 0 0
BITMAP
3D80
6300
1E00
1E00
7300
7F80
7380
D1C0
F3C0
ED40
7F80
3F00
ENDCHAR
STARTCHAR odieresis
ENCODING 246
SWIDTH 833 0
DWIDTH 10 0
BBX 10 11 0 0
BITMAP
2D00
0000
1E00
7300
7F80
7380
D1C0
F3C0
ED40
7F80
3F00
ENDCHAR
STARTCHAR divide
ENCODING 247
SWIDTH 260 0
DWIDTH 3 0
BBX 3 6 0 1
BITMAP
60
60
E0
E0
60
60
ENDCHAR
STARTCHAR oslash
ENCODING 248
SWIDTH 832 0
DWIDTH 10 0
BBX 10 11 0 -1
BITMAP
0100
1F80
7300
7F80
F380
D1C0
F3C0
ED40
7F80
3F00
7000
ENDCHAR
STARTCHAR ugrave
ENCODING 249
SWIDTH 795 0
DWIDTH 10 0
BBX 9 12 0 0
BITMAP
7000
3C00
0800
0000
E380
E380
E380
E380
E380
FF80
7E80
3F00
ENDCHAR
STARTCHAR uacute
ENCODING 250
SWIDTH 795 0
DWIDTH 10 0
BBX 9 12 0 0
BITMAP
0380
0E00
0000
0000
E380
E380
E380
E380
E380
FF80
7E80
3F00
ENDCHAR
STARTCHAR ucircumflex
ENCODING 251
SWIDTH 795 0
DWIDTH 10 0
BBX 9 12 0 0
BITMAP
0C00
1C00
1600
0000
E380
E380
E380
E380
E380
FF80
7E80
3F00
ENDCHAR
STARTCHAR udieresis
ENCODING 252
SWIDTH 795 0
DWIDTH 10 0
BBX 9 11 0 0
BITMAP
3700
0000
0000
E380
E380
E380
E380
E380
FF80
7E80
3F00
ENDCHAR
STARTCHAR yacute
ENCODING 253
SWIDTH 733 0
DWIDTH 9 0
BBX 9 12 0 0
BITMAP
0300
1C00
0800
0080
F700
7B00
5D00
3600
1A00
1C00
1C00
1C00
ENDCHAR
STARTCHAR thorn
ENCODING 254
SWIDTH 833 0
DWIDTH 10 0
BBX 9 11 1 -1
BITMAP
E000
E000
E000
FE00
E300
FF80
FF80
FD00
FF00
E000
E000
ENDCHAR
STARTCHAR ydieresis
ENCODING 255
SWIDTH 733 0
DWIDTH 9 0
BBX 9 11 0 0
BITMAP
3500
0000
0080
F700
7B00
5D00
3600
1A00
1C00
1C00
1C00
ENDCHAR
STARTCHAR Amacron
ENCODING 256
SWIDTH 936 0
DWIDTH 11 0
BBX 11 10 0 0
BITMAP
0A00
1700
1B00
3700
3E80
2A80
3FC0
69C0
6FC0
F160
ENDCHAR
STARTCHAR amacron
ENCODING 257
SWIDTH 832 0
DWIDTH 10 0
BBX 9 9 0 0
BITMAP
0C00
3F00
7380
7F80
D180
E180
FD80
7D80
3D80
ENDCHAR
STARTCHAR Abreve
ENCODING 258
SWIDTH 936 0
DWIDTH 11 0
BBX 11 12 0 0
BITMAP
0A00
0400
0A00
1700
1B00
3700
3E80
2A80
3FC0
69C0
6FC0
F160
ENDCHAR
STARTCHAR abreve
ENCODING 259
SWIDTH 832 0
DWIDTH 10 0
BBX 9 11 0 0
BITMAP
1600
0800
0C00
3F00
7380
7F80
D180
E180
FD80
7D80
3D80
ENDCHAR
STARTCHAR Aogonek
ENCODING 260
SWIDTH 937 0
DWIDTH 11 0
BBX 11 13 0 -3
BITMAP
0D00
1700
1B00
1780
3E80
2B40
5DC0
73C0
6FE0
F9A0
1400
0800
0C00
ENDCHAR
STARTCHAR aogonek
ENCODING 261
SWIDTH 832 0
DWIDTH 10 0
BBX 9 13 0 -4
BITMAP
0C00
3F00
7380
7F80
D180
E180
FD80
7D80
3580
0800
1800
3000
2800
ENDCHAR
STARTCHAR Cacute
ENCODING 262
SWIDTH 852 0
DWIDTH 10 0
BBX 10 13 0 0
BITMAP
01C0
0700
0000
1F00
3BC0
7F80
7100
E000
D000
7100
5F80
7EC0
3F80
ENDCHAR
STARTCHAR cacute
ENCODING 263
SWIDTH 736 0
DWIDTH 9 0
BBX 9 12 0 0
BITMAP
0380
0E00
0000
1E00
7380
7F00
7200
D000
F000
EE00
7D80
3F00
ENDCHAR
STARTCHAR Cdotaccent
ENCODING 266
SWIDTH 852 0
DWIDTH 10 0
BBX 10 13 0 0
BITMAP
0600
0600
0000
1F00
3BC0
7F80
7100
E000
D000
7100
5F80
7EC0
3F80
ENDCHAR
STARTCHAR cdotaccent
ENCODING 267
SWIDTH 736 0
DWIDTH 9 0
BBX 9 12 0 0
BITMAP
0C00
0C00
0000
1E00
7380
7F00
7200
D000
F000
EE00
7D80
3F00
ENDCHAR
STARTCHAR Ccaron
ENCODING 268
SWIDTH 852 0
DWIDTH 10 0
BBX 10 14 0 0
BITMAP
0A00
0E00
0400
0000
1F00
3BC0
7F80
7100
E000
D000
7100
5F80
7EC0
3F80
ENDCHAR
STARTCHAR ccaron
ENCODING 269
SWIDTH 736 0
DWIDTH 9 0
BBX 9 12 0 0
BITMAP
1E00
1400
0C00
1E00
7380
7F00
7200
D000
F000
EE00
7D80
3F00
ENDCHAR
STARTCHAR Dcaron
ENCODING 270
SWIDTH 886 0
DWIDTH 11 0
BBX 9 14 1 0
BITMAP
3C00
1C00
1400
0000
FC00
FF00
C580
FF80
E280
E380
E380
DF80
BF00
FE00
ENDCHAR
STARTCHAR dcaron
ENCODING 271
SWIDTH 1084 0
DWIDTH 13 0
BBX 12 9 1 0
BITMAP
0070
FE70
FB50
FEE0
E380
E780
DD00
BF00
FE00
ENDCHAR
STARTCHAR Dcroat
ENCODING 272
SWIDTH 888 0
DWIDTH 11 0
BBX 11 10 -1 0
BITMAP
3F00
3FC0
3160
3FE0
BCA0
BCE0
38E0
37E0
2FC0
7F80
ENDCHAR
STARTCHAR dcroat
ENCODING 273
SWIDTH 833 0
DWIDTH 10 0
BBX 11 8 -1 0
BITMAP
3F80
3EC0
3FA0
BCE0
39E0
3740
2FC0
7F80
ENDCHAR
STARTCHAR Emacron
ENCODING 274
SWIDTH 706 0
DWIDTH 8 0
BBX 7 10 1 0
BITMAP
FE
FE
E0
E0
F8
F8
E0
E0
FE
FE
ENDCHAR
STARTCHAR emacron
ENCODING 275
SWIDTH 666 0
DWIDTH 8 0
BBX 7 8 1 0
BITMAP
FE
FE
FC
E0
FC
E0
FE
FE
ENDCHAR
STARTCHAR Ebreve
ENCODING 276
SWIDTH 706 0
DWIDTH 8 0
BBX 7 12 1 0
BITMAP
68
10
FE
FE
E0
E0
F8
F8
E0
E0
FE
FE
ENDCHAR
STARTCHAR ebreve
ENCODING 277
SWIDTH 666 0
DWIDTH 8 0
BBX 7 11 1 0
BITMAP
48
30
00
FE
FE
FC
E0
FC
E0
FE
FE
ENDCHAR
STARTCHAR Edotaccent
ENCODING 278
SWIDTH 706 0
DWIDTH 8 0
BBX 7 13 1 0
BITMAP
30
30
00
FE
FE
E0
E0
F8
F8
E0
E0
FE
FE
ENDCHAR
STARTCHAR edotaccent
ENCODING 279
SWIDTH 666 0
DWIDTH 8 0
BBX 7 12 1 0
BITMAP
30
30
00
00
FE
FE
FC
E0
FC
E0
FE
FE
ENDCHAR
STARTCHAR Eogonek
ENCODING 280
SWIDTH 706 0
DWIDTH 8 0
BBX 7 13 1 -3
BITMAP
FE
FE
E0
E0
F8
F8
E0
E0
FE
F8
06
04
06
ENDCHAR
STARTCHAR eogonek
ENCODING 281
SWIDTH 666 0
DWIDTH 8 0
BBX 7 11 1 -3
BITMAP
FE
FE
FC
E0
FC
E0
FE
F4
0A
0C
0E
ENDCHAR
STARTCHAR Ecaron
ENCODING 282
SWIDTH 706 0
DWIDTH 8 0
BBX 7 14 1 0
BITMAP
68
38
30
00
FE
FE
E0
E0
F8
F8
E0
E0
FE
FE
ENDCHAR
STARTCHAR ecaron
ENCODING 283
SWIDTH 666 0
DWIDTH 8 0
BBX 7 12 1 0
BITMAP
78
50
30
00
FE
FE
FC
E0
FC
E0
FE
FE
ENDCHAR
STARTCHAR Gbreve
ENCODING 286
SWIDTH 908 0
DWIDTH 11 0
BBX 10 12 0 0
BITMAP
0A00
0400
1F00
3BC0
7F80
7100
D000
D1C0
F1C0
5FC0
6FC0
3FC0
ENDCHAR
STARTCHAR gbreve
ENCODING 287
SWIDTH 827 0
DWIDTH 10 0
BBX 9 11 0 0
BITMAP
1200
0C00
1E00
7380
7F00
7200
D000
F380
EF80
7F80
3F80
ENDCHAR
STARTCHAR Gdotaccent
ENCODING 288
SWIDTH 908 0
DWIDTH 11 0
BBX 10 13 0 0
BITMAP
0600
0600
0000
1F00
3BC0
7F80
7100
D000
D1C0
F1C0
5FC0
6FC0
3FC0
ENDCHAR
STARTCHAR gdotaccent
ENCODING 289
SWIDTH 827 0
DWIDTH 10 0
BBX 9 12 0 0
BITMAP
0C00
0C00
0000
1E00
7380
7F00
7200
D000
F380
EF80
7F80
3F80
ENDCHAR
STARTCHAR Gcommaaccent
ENCODING 290
SWIDTH 908 0
DWIDTH 11 0
BBX 10 15 0 -5
BITMAP
1F00
3BC0
7F80
7100
D000
D1C0
F1C0
5FC0
6FC0
37C0
0800
0600
0600
0A00
0400
ENDCHAR
STARTCHAR gcommaaccent
ENCODING 291
SWIDTH 827 0
DWIDTH 10 0
BBX 9 9 0 0
BITMAP
1E00
7380
7F00
7200
D000
F380
EF80
7F80
3F80
ENDCHAR
STARTCHAR Hcircumflex
ENCODING 292
SWIDTH 901 0
DWIDTH 11 0
BBX 9 14 1 0
BITMAP
1400
1C00
3C00
0000
E380
E380
E380
E380
FF80
FF80
E380
E380
E380
E380
ENDCHAR
STARTCHAR hcircumflex
ENCODING 293
SWIDTH 830 0
DWIDTH 10 0
BBX 8 12 1 0
BITMAP
18
28
3C
00
E7
E7
E7
FF
FF
E7
E7
E7
ENDCHAR
STARTCHAR Hbar
ENCODING 294
SWIDTH 901 0
DWIDTH 11 0
BBX 11 10 0 0
BITMAP
71A0
FFA0
FFA0
71A0
7FA0
7FA0
71A0
71A0
71A0
71A0
ENDCHAR
STARTCHAR hbar
ENCODING 295
SWIDTH 830 0
DWIDTH 10 0
BBX 10 8 0 0
BITMAP
FFC0
FFC0
7380
7F80
7F80
7380
7380
7380
ENDCHAR
STARTCHAR Itilde
ENCODING 296
SWIDTH 338 0
DWIDTH 4 0
BBX 8 13 -2 0
BITMAP
7B
C7
1C
1C
1C
1C
1C
1C
1C
1C
1C
1C
1C
ENDCHAR
STARTCHAR itilde
ENCODING 297
SWIDTH 337 0
DWIDTH 4 0
BBX 8 12 -2 0
BITMAP
7B
C7
1C
00
1C
1C
1C
1C
1C
1C
1C
1C
ENDCHAR
STARTCHAR Imacron
ENCODING 298
SWIDTH 338 0
DWIDTH 4 0
BBX 3 10 1 0
BITMAP
E0
E0
E0
E0
E0
E0
E0
E0
E0
E0
ENDCHAR
STARTCHAR imacron
ENCODING 299
SWIDTH 337 0
DWIDTH 4 0
BBX 3 8 1 0
BITMAP
E0
E0
E0
E0
E0
E0
E0
E0
ENDCHAR
STARTCHAR Ibreve
ENCODING 300
SWIDTH 338 0
DWIDTH 4 0
BBX 4 12 0 0
BITMAP
90
60
70
70
70
70
70
70
70
70
70
70
ENDCHAR
STARTCHAR ibreve
ENCODING 301
SWIDTH 337 0
DWIDTH 4 0
BBX 4 11 0 0
BITMAP
90
60
00
70
70
70
70
70
70
70
70
ENDCHAR
STARTCHAR Iogonek
ENCODING 302
SWIDTH 338 0
DWIDTH 4 0
BBX 3 13 1 -3
BITMAP
E0
E0
E0
E0
E0
E0
E0
E0
E0
E0
A0
C0
C0
ENDCHAR
STARTCHAR iogonek
ENCODING 303
SWIDTH 337 0
DWIDTH 4 0
BBX 3 11 1 -3
BITMAP
E0
E0
E0
E0
E0
E0
E0
E0
A0
C0
E0
ENDCHAR
STARTCHAR Idotaccent
ENCODING 304
SWIDTH 338 0
DWIDTH 4 0
BBX 3 13 1 0
BITMAP
C0
C0
00
E0
E0
E0
E0
E0
E0
E0
E0
E0
E0
ENDCHAR
STARTCHAR dotlessi
ENCODING 305
SWIDTH 337 0
DWIDTH 4 0
BBX 3 8 1 0
BITMAP
E0
E0
E0
E0
E0
E0
E0
E0
ENDCHAR
STARTCHAR IJ
ENCODING 306
SWIDTH 774 0
DWIDTH 9 0
BBX 8 10 1 0
BITMAP
E7
E7
E7
E7
E7
E7
E7
FF
FD
FE
ENDCHAR
STARTCHAR ij
ENCODING 307
SWIDTH 729 0
DWIDTH 9 0
BBX 7 9 1 -1
BITMAP
EE
EE
EE
EE
EE
EE
F6
FE
1C
ENDCHAR
STARTCHAR Jcircumflex
ENCODING 308
SWIDTH 434 0
DWIDTH 5 0
BBX 5 14 0 0
BITMAP
30
30
78
00
58
58
58
58
58
58
58
F8
F0
F0
ENDCHAR
STARTCHAR jcircumflex
ENCODING 309
SWIDTH 393 0
DWIDTH 5 0
BBX 5 13 0 -1
BITMAP
30
50
78
00
70
70
70
70
70
70
F0
B0
E0
ENDCHAR
STARTCHAR Kcommaaccent
ENCODING 310
SWIDTH 815 0
DWIDTH 10 0
BBX 9 15 1 -5
BITMAP
E780
EB00
ED00
F600
FC00
EC00
FE00
EA00
EF00
E780
0000
1800
1800
1800
1000
ENDCHAR
STARTCHAR kcommaaccent
ENCODING 311
SWIDTH 801 0
DWIDTH 10 0
BBX 8 13 1 -5
BITMAP
EF
EE
FE
EC
FC
FE
EF
E7
00
18
18
18
10
ENDCHAR
STARTCHAR kgreenlandic
ENCODING 312
SWIDTH 801 0
DWIDTH 10 0
BBX 8 8 1 0
BITMAP
EF
EE
FE
EC
FC
FE
EF
E7
ENDCHAR
STARTCHAR Lacute
ENCODING 313
SWIDTH 604 0
DWIDTH 7 0
BBX 7 13 1 0
BITMAP
0E
38
00
E0
E0
E0
E0
E0
E0
E0
E0
FC
FC
ENDCHAR
STARTCHAR lacute
ENCODING 314
SWIDTH 583 0
DWIDTH 7 0
BBX 6 12 1 0
BITMAP
38
F0
40
00
E0
E0
E0
E0
E0
E0
FC
FC
ENDCHAR
STARTCHAR Lcommaaccent
ENCODING 315
SWIDTH 604 0
DWIDTH 7 0
BBX 6 15 1 -5
BITMAP
E0
E0
E0
E0
E0
E0
E0
E0
FC
FC
00
30
30
30
20
ENDCHAR
STARTCHAR lcommaaccent
ENCODING 316
SWIDTH 583 0
DWIDTH 7 0
BBX 6 13 1 -5
BITMAP
E0
E0
E0
E0
E0
E0
FC
FC
00
30
30
30
20
ENDCHAR
STARTCHAR Lcaron
ENCODING 317
SWIDTH 856 0
DWIDTH 10 0
BBX 9 10 1 0
BITMAP
E280
E280
E180
E100
E000
E000
E000
E000
FC00
FC00
ENDCHAR
STARTCHAR lcaron
ENCODING 318
SWIDTH 584 0
DWIDTH 7 0
BBX 6 9 1 0
BITMAP
1C
FC
F4
F8
E0
E0
E0
FC
FC
ENDCHAR
STARTCHAR Ldot
ENCODING 319
SWIDTH 604 0
DWIDTH 7 0
BBX 6 10 1 0
BITMAP
E0
E0
E0
E0
F8
F8
E0
E0
FC
FC
ENDCHAR
STARTCHAR ldot
ENCODING 320
SWIDTH 582 0
DWIDTH 7 0
BBX 6 8 1 0
BITMAP
E0
F8
F8
E0
E0
E0
FC
FC
ENDCHAR
STARTCHAR Lslash
ENCODING 321
SWIDTH 604 0
DWIDTH 7 0
BBX 8 10 -1 0
BITMAP
38
38
3E
3A
BC
B8
B8
38
3F
3F
ENDCHAR
STARTCHAR lslash
ENCODING 322
SWIDTH 581 0
DWIDTH 7 0
BBX 8 8 -1 0
BITMAP
38
3E
3E
B8
F8
38
3F
3F
ENDCHAR
STARTCHAR Nacute
ENCODING 323
SWIDTH 877 0
DWIDTH 11 0
BBX 9 13 1 0
BITMAP
0700
1E00
0800
E380
F380
AB80
DB80
FD80
FD80
FF80
EB80
EF80
E780
ENDCHAR
STARTCHAR nacute
ENCODING 324
SWIDTH 787 0
DWIDTH 9 0
BBX 8 12 1 0
BITMAP
07
1C
00
00
F5
F5
FD
D5
FD
D5
DF
CF
ENDCHAR
STARTCHAR Ncommaaccent
ENCODING 325
SWIDTH 877 0
DWIDTH 11 0
BBX 9 15 1 -5
BITMAP
E380
F380
AB80
DB80
FD80
FD80
FF80
EB80
EF80
E780
0000
1400
1400
1800
1000
ENDCHAR
STARTCHAR ncommaaccent
ENCODING 326
SWIDTH 787 0
DWIDTH 9 0
BBX 8 13 1 -5
BITMAP
F5
F5
FD
D5
FD
D5
DF
CF
00
28
28
18
10
ENDCHAR
STARTCHAR Ncaron
ENCODING 327
SWIDTH 877 0
DWIDTH 11 0
BBX 9 14 1 0
BITMAP
3400
1C00
1800
0000
E380
F380
AB80
DB80
FD80
FD80
FF80
EB80
EF80
E780
ENDCHAR
STARTCHAR ncaron
ENCODING 328
SWIDTH 787 0
DWIDTH 9 0
BBX 8 12 1 0
BITMAP
2C
38
18
00
F5
F5
FD
D5
FD
D5
DF
CF
ENDCHAR
STARTCHAR Eng
ENCODING 330
SWIDTH 874 0
DWIDTH 11 0
BBX 9 14 1 -4
BITMAP
E380
F380
AB80
FB80
FD80
D580
FD80
ED80
EB80
E580
0680
0380
0700
0600
ENDCHAR
STARTCHAR eng
ENCODING 331
SWIDTH 691 0
DWIDTH 8 0
BBX 7 11 1 -3
BITMAP
F6
F6
F6
D6
F6
D6
D6
CE
06
1C
0C
ENDCHAR
STARTCHAR Omacron
ENCODING 332
SWIDTH 933 0
DWIDTH 11 0
BBX 11 10 0 0
BITMAP
1F00
3BC0
7FC0
71E0
E0A0
D0A0
71E0
5FA0
7EC0
3F80
ENDCHAR
STARTCHAR omacron
ENCODING 333
SWIDTH 833 0
DWIDTH 10 0
BBX 10 9 0 0
BITMAP
1E00
7300
7F80
7380
D1C0
F3C0
ED40
7F80
3F00
ENDCHAR
STARTCHAR Obreve
ENCODING 334
SWIDTH 933 0
DWIDTH 11 0
BBX 11 12 0 0
BITMAP
0A00
0400
1F00
3BC0
7FC0
71E0
E0A0
D0A0
71E0
5FA0
7EC0
3F80
ENDCHAR
STARTCHAR obreve
ENCODING 335
SWIDTH 833 0
DWIDTH 10 0
BBX 10 11 0 0
BITMAP
1200
0C00
1E00
7300
7F80
7380
D1C0
F3C0
ED40
7F80
3F00
ENDCHAR
STARTCHAR Ohungarumlaut
ENCODING 336
SWIDTH 933 0
DWIDTH 11 0
BBX 12 13 0 0
BITMAP
0670
39C0
1000
1F00
3BC0
7FC0
71E0
E0A0
D0A0
71E0
5FA0
7EC0
3F80
ENDCHAR
STARTCHAR ohungarumlaut
ENCODING 337
SWIDTH 833 0
DWIDTH 10 0
BBX 11 12 0 0
BITMAP
0EE0
3BC0
0100
1E00
7300
7F80
7380
D1C0
F3C0
ED40
7F80
3F00
ENDCHAR
STARTCHAR OE
ENCODING 338
SWIDTH 1317 0
DWIDTH 16 0
BBX 15 10 0 0
BITMAP
1FBE
3BBE
7FA0
71A0
E0B8
D0B8
71A0
5FA0
7EBE
3FBE
ENDCHAR
STARTCHAR oe
ENCODING 339
SWIDTH 1174 0
DWIDTH 14 0
BBX 14 9 0 0
BITMAP
1E00
73FC
7FFC
73F8
D1C0
F3F8
EDC0
7FFC
3FFC
ENDCHAR
STARTCHAR Racute
ENCODING 340
SWIDTH 843 0
DWIDTH 10 0
BBX 9 13 1 0
BITMAP
0C00
7000
2000
FC00
FF00
C380
FD80
FF80
FE80
E300
FD00
EB00
E700
ENDCHAR
STARTCHAR Rcommaaccent
ENCODING 342
SWIDTH 843 0
DWIDTH 10 0
BBX 9 15 1 -5
BITMAP
FC00
FF00
C380
FD80
FF80
FE80
E300
FD00
EB00
E700
0000
1800
1800
1800
1000
ENDCHAR
STARTCHAR rcommaaccent
ENCODING 343
SWIDTH 831 0
DWIDTH 10 0
BBX 9 13 1 -5
BITMAP
FF00
FD00
FF80
FF80
E300
FE00
EA00
E700
0000
1800
1800
1800
1000
ENDCHAR
STARTCHAR Rcaron
ENCODING 344
SWIDTH 843 0
DWIDTH 10 0
BBX 9 14 1 0
BITMAP
F000
7000
5000
0000
FC00
FF00
C380
FD80
FF80
FE80
E300
FD00
EB00
E700
ENDCHAR
STARTCHAR rcaron
ENCODING 345
SWIDTH 831 0
DWIDTH 10 0
BBX 9 12 1 0
BITMAP
3C00
1400
1800
0000
FF00
FD00
FF80
FF80
E300
FE00
EA00
E700
ENDCHAR
STARTCHAR Sacute
ENCODING 346
SWIDTH 682 0
DWIDTH 8 0
BBX 8 13 0 0
BITMAP
07
1E
08
3E
67
FC
D8
76
7E
1B
3B
7E
FE
ENDCHAR
STARTCHAR sacute
ENCODING 347
SWIDTH 683 0
DWIDTH 8 0
BBX 8 12 0 0
BITMAP
07
1E
08
1C
7F
E6
F8
A6
7B
05
FB
7E
ENDCHAR
STARTCHAR Scircumflex
ENCODING 348
SWIDTH 682 0
DWIDTH 8 0
BBX 8 14 0 0
BITMAP
18
14
3C
00
3E
67
FC
D8
76
7E
1B
3B
7E
FE
ENDCHAR
STARTCHAR scircumflex
ENCODING 349
SWIDTH 683 0
DWIDTH 8 0
BBX 8 12 0 0
BITMAP
18
14
3C
1C
7F
E6
F8
A6
7B
05
FB
7E
ENDCHAR
STARTCHAR Scedilla
ENCODING 350
SWIDTH 682 0
DWIDTH 8 0
BBX 8 15 0 -5
BITMAP
3E
67
FC
D8
76
7E
1B
3B
7E
DE
20
38
30
38
08
ENDCHAR
STARTCHAR scedilla
ENCODING 351
SWIDTH 683 0
DWIDTH 8 0
BBX 8 13 0 -4
BITMAP
1C
7F
E6
F8
A6
7B
05
FB
56
38
30
38
08
ENDCHAR
STARTCHAR Scaron
ENCODING 352
SWIDTH 682 0
DWIDTH 8 0
BBX 8 14 0 0
BITMAP
3C
18
18
00
3E
67
FC
D8
76
7E
1B
3B
7E
FE
ENDCHAR
STARTCHAR scaron
ENCODING 353
SWIDTH 683 0
DWIDTH 8 0
BBX 8 12 0 0
BITMAP
3C
18
18
1C
7F
E6
F8
A6
7B
05
FB
7E
ENDCHAR
STARTCHAR Tcommaaccent
ENCODING 354
SWIDTH 591 0
DWIDTH 7 0
BBX 7 14 0 -4
BITMAP
FE
FE
38
38
38
38
38
38
38
38
30
60
50
30
ENDCHAR
STARTCHAR tcommaaccent
ENCODING 355
SWIDTH 588 0
DWIDTH 7 0
BBX 7 12 0 -4
BITMAP
FE
FE
38
38
38
38
38
38
30
60
50
30
ENDCHAR
STARTCHAR Tcaron
ENCODING 356
SWIDTH 591 0
DWIDTH 7 0
BBX 7 14 0 0
BITMAP
28
38
10
00
FE
FE
38
38
38
38
38
38
38
38
ENDCHAR
STARTCHAR tcaron
ENCODING 357
SWIDTH 842 0
DWIDTH 10 0
BBX 10 9 0 0
BITMAP
00C0
FEC0
FEC0
3880
3800
3800
3800
3800
3800
ENDCHAR
STARTCHAR Tbar
ENCODING 358
SWIDTH 591 0
DWIDTH 7 0
BBX 7 10 0 0
BITMAP
FE
FE
38
38
FE
FE
38
38
38
38
ENDCHAR
STARTCHAR tbar
ENCODING 359
SWIDTH 588 0
DWIDTH 7 0
BBX 7 8 0 0
BITMAP
FE
FE
38
38
D6
D6
38
38
ENDCHAR
STARTCHAR Utilde
ENCODING 360
SWIDTH 905 0
DWIDTH 11 0
BBX 10 13 0 0
BITMAP
3F80
2080
0F00
E1C0
E1C0
E1C0
E1C0
E1C0
E1C0
71C0
5FC0
6F40
3F80
ENDCHAR
STARTCHAR utilde
ENCODING 361
SWIDTH 795 0
DWIDTH 10 0
BBX 9 12 0 0
BITMAP
3D00
6300
1E00
0000
E380
E380
E380
E380
E380
FF80
7E80
3F00
ENDCHAR
STARTCHAR Umacron
ENCODING 362
SWIDTH 905 0
DWIDTH 11 0
BBX 10 10 0 0
BITMAP
E1C0
E1C0
E1C0
E1C0
E1C0
E1C0
71C0
5FC0
6F40
3F80
ENDCHAR
STARTCHAR umacron
ENCODING 363
SWIDTH 795 0
DWIDTH 10 0
BBX 9 8 0 0
BITMAP
E380
E380
E380
E380
E380
FF80
7E80
3F00
ENDCHAR
STARTCHAR Ubreve
ENCODING 364
SWIDTH 905 0
DWIDTH 11 0
BBX 10 12 0 0
BITMAP
0A00
0400
E1C0
E1C0
E1C0
E1C0
E1C0
E1C0
71C0
5FC0
6F40
3F80
ENDCHAR
STARTCHAR ubreve
ENCODING 365
SWIDTH 795 0
DWIDTH 10 0
BBX 9 11 0 0
BITMAP
1600
0800
0000
E380
E380
E380
E380
E380
FF80
7E80
3F00
ENDCHAR
STARTCHAR Uring
ENCODING 366
SWIDTH 905 0
DWIDTH 11 0
BBX 10 13 0 0
BITMAP
0E00
0A00
0400
E1C0
E1C0
E1C0
E1C0
E1C0
E1C0
71C0
5FC0
6F40
3F80
ENDCHAR
STARTCHAR uring
ENCODING 367
SWIDTH 795 0
DWIDTH 10 0
BBX 9 12 0 0
BITMAP
1E00
1400
0C00
0000
E380
E380
E380
E380
E380
FF80
7E80
3F00
ENDCHAR
STARTCHAR Uhungarumlaut
ENCODING 368
SWIDTH 905 0
DWIDTH 11 0
BBX 12 13 0 0
BITMAP
0E70
3DC0
1000
E1A0
E1A0
E1A0
E1A0
E1A0
E1A0
71A0
5FC0
6F40
3F80
ENDCHAR
STARTCHAR uhungarumlaut
ENCODING 369
SWIDTH 795 0
DWIDTH 10 0
BBX 11 12 0 0
BITMAP
0EE0
3B80
0000
0000
E380
E380
E380
E380
E380
FF80
7E80
3F00
ENDCHAR
STARTCHAR Uogonek
ENCODING 370
SWIDTH 905 0
DWIDTH 11 0
BBX 10 13 0 -3
BITMAP
E1C0
E1C0
E1C0
E1C0
E1C0
E1C0
71C0
5FC0
6F40
3580
0E00
0800
0C00
ENDCHAR
STARTCHAR uogonek
ENCODING 371
SWIDTH 794 0
DWIDTH 10 0
BBX 9 11 0 -3
BITMAP
E380
E380
E380
E380
E380
FF80
7E80
3F00
1800
1000
1800
ENDCHAR
STARTCHAR Ycircumflex
ENCODING 374
SWIDTH 789 0
DWIDTH 9 0
BBX 9 14 0 0
BITMAP
0C00
1C00
1600
0000
D380
B580
6E80
5B00
2D00
3A00
1E00
1A00
1A00
1A00
ENDCHAR
STARTCHAR ycircumflex
ENCODING 375
SWIDTH 733 0
DWIDTH 9 0
BBX 9 12 0 0
BITMAP
1400
1C00
3C00
0080
F700
7B00
5D00
3600
1A00
1C00
1C00
1C00
ENDCHAR
STARTCHAR Ydieresis
ENCODING 376
SWIDTH 789 0
DWIDTH 9 0
BBX 9 12 0 0
BITMAP
3700
0000
D380
B580
6E80
5B00
2D00
3A00
1E00
1A00
1A00
1A00
ENDCHAR
STARTCHAR Zacute
ENCODING 377
SWIDTH 854 0
DWIDTH 10 0
BBX 10 13 0 0
BITMAP
0380
0F00
0400
FFC0
FEC0
03C0
FFC0
1F80
3F00
FC00
FBC0
EFC0
FFC0
ENDCHAR
STARTCHAR zacute
ENCODING 378
SWIDTH 714 0
DWIDTH 9 0
BBX 8 12 0 0
BITMAP
07
1E
08
00
FF
F5
1E
3C
3C
78
AF
FF
ENDCHAR
STARTCHAR Zdotaccent
ENCODING 379
SWIDTH 854 0
DWIDTH 10 0
BBX 10 13 0 0
BITMAP
0C00
0C00
0000
FFC0
FEC0
03C0
FFC0
1F80
3F00
FC00
FBC0
EFC0
FFC0
ENDCHAR
STARTCHAR zdotaccent
ENCODING 380
SWIDTH 714 0
DWIDTH 9 0
BBX 8 12 0 0
BITMAP
18
18
00
00
FF
F5
1E
3C
3C
78
AF
FF
ENDCHAR
STARTCHAR Zcaron
ENCODING 381
SWIDTH 854 0
DWIDTH 10 0
BBX 10 14 0 0
BITMAP
1E00
0A00
0C00
0000
FFC0
FEC0
03C0
FFC0
1F80
3F00
FC00
FBC0
EFC0
FFC0
ENDCHAR
STARTCHAR zcaron
ENCODING 382
SWIDTH 714 0
DWIDTH 9 0
BBX 8 12 0 0
BITMAP
3C
1C
18
00
FF
F5
1E
3C
3C
78
AF
FF
ENDCHAR
STARTCHAR florin
ENCODING 402
SWIDTH 388 0
DWIDTH 5 0
BBX 4 11 0 -1
BITMAP
30
70
60
F0
F0
60
60
60
E0
60
C0
ENDCHAR
STARTCHAR uni01C4
ENCODING 452
SWIDTH 1740 0
DWIDTH 21 0
BBX 19 14 1 0
BITMAP
000580
000700
000300
000000
FC3FE0
FF3FE0
C582E0
FFBDE0
E286C0
E34F80
E3BF00
DFADE0
BF33E0
FE3FE0
ENDCHAR
STARTCHAR uni01C5
ENCODING 453
SWIDTH 1601 0
DWIDTH 19 0
BBX 18 12 1 0
BITMAP
000F00
000A00
FC0600
FF0000
C5BFC0
FFBF80
E28500
E34F00
E39D00
DF9E00
BF3DC0
FE2BC0
ENDCHAR
STARTCHAR Scommaaccent
ENCODING 536
SWIDTH 682 0
DWIDTH 8 0
BBX 8 15 0 -5
BITMAP
3E
67
FC
D8
76
7E
1B
3B
7E
DE
20
18
18
18
10
ENDCHAR
STARTCHAR scommaaccent
ENCODING 537
SWIDTH 683 0
DWIDTH 8 0
BBX 8 14 0 -5
BITMAP
1C
7F
E6
F8
A6
7B
05
FB
7E
00
18
18
18
10
ENDCHAR
STARTCHAR uni021A
ENCODING 538
SWIDTH 591 0
DWIDTH 7 0
BBX 7 15 0 -5
BITMAP
FE
FE
38
38
38
38
38
38
38
38
00
38
38
28
30
ENDCHAR
STARTCHAR uni021B
ENCODING 539
SWIDTH 588 0
DWIDTH 7 0
BBX 7 13 0 -5
BITMAP
FE
FE
38
38
38
38
38
38
00
38
38
28
30
ENDCHAR
STARTCHAR uni0237
ENCODING 567
SWIDTH 393 0
DWIDTH 5 0
BBX 4 9 0 -1
BITMAP
70
70
70
70
70
70
F0
B0
E0
ENDCHAR
STARTCHAR circumflex
ENCODING 710
SWIDTH 376 0
DWIDTH 5 0
BBX 4 3 0 9
BITMAP
60
60
D0
ENDCHAR
STARTCHAR caron
ENCODING 711
SWIDTH 362 0
DWIDTH 4 0
BBX 4 3 0 9
BITMAP
F0
60
60
ENDCHAR
STARTCHAR breve
ENCODING 728
SWIDTH 360 0
DWIDTH 4 0
BBX 4 2 0 9
BITMAP
F0
20
ENDCHAR
STARTCHAR dotaccent
ENCODING 729
SWIDTH 255 0
DWIDTH 3 0
BBX 3 2 0 8
BITMAP
E0
E0
ENDCHAR
STARTCHAR ring
ENCODING 730
SWIDTH 330 0
DWIDTH 4 0
BBX 4 3 0 9
BITMAP
60
B0
60
ENDCHAR
STARTCHAR ogonek
ENCODING 731
SWIDTH 250 0
DWIDTH 3 0
BBX 3 3 0 -3
BITMAP
E0
C0
E0
ENDCHAR
STARTCHAR tilde
ENCODING 732
SWIDTH 665 0
DWIDTH 8 0
BBX 8 2 0 7
BITMAP
7B
DF
ENDCHAR
STARTCHAR hungarumlaut
ENCODING 733
SWIDTH 837 0
DWIDTH 10 0
BBX 10 2 0 9
BITMAP
19C0
E700
ENDCHAR
STARTCHAR uni0307
ENCODING 775
SWIDTH 260 0
DWIDTH 3 0
BBX 3 2 0 5
BITMAP
E0
E0
ENDCHAR
STARTCHAR uni030F
ENCODING 783
SWIDTH 554 0
DWIDTH 7 0
BBX 6 4 0 9
BITMAP
D8
48
6C
6C
ENDCHAR
STARTCHAR uni0311
ENCODING 785
SWIDTH 375 0
DWIDTH 5 0
BBX 4 2 0 9
BITMAP
60
90
ENDCHAR
STARTCHAR uni0326
ENCODING 806
SWIDTH 274 0
DWIDTH 3 0
BBX 2 4 1 -5
BITMAP
C0
C0
C0
80
ENDCHAR
STARTCHAR Omega
ENCODING 937
SWIDTH 92 0
DWIDTH 1 0
BBX 1 1 0 0
BITMAP
00
ENDCHAR
STARTCHAR uni00B5.dup2
ENCODING 956
SWIDTH 802 0
DWIDTH 10 0
BBX 8 9 1 -1
BITMAP
E5
E5
E5
E5
E5
FF
FA
FE
E0
ENDCHAR
STARTCHAR pi
ENCODING 960
SWIDTH 92 0
DWIDTH 1 0
BBX 1 1 0 0
BITMAP
00
ENDCHAR
STARTCHAR endash
ENCODING 8211
SWIDTH 473 0
DWIDTH 6 0
BBX 4 2 1 4
BITMAP
F0
F0
ENDCHAR
STARTCHAR emdash
ENCODING 8212
SWIDTH 615 0
DWIDTH 7 0
BBX 6 2 1 4
BITMAP
FC
FC
ENDCHAR
STARTCHAR quoteleft
ENCODING 8216
SWIDTH 254 0
DWIDTH 3 0
BBX 3 4 0 6
BITMAP
60
A0
E0
E0
ENDCHAR
STARTCHAR quoteright
ENCODING 8217
SWIDTH 251 0
DWIDTH 3 0
BBX 3 4 0 6
BITMAP
E0
E0
60
C0
ENDCHAR
STARTCHAR quotesinglbase
ENCODING 8218
SWIDTH 252 0
DWIDTH 3 0
BBX 3 4 0 -2
BITMAP
E0
E0
A0
C0
ENDCHAR
STARTCHAR quotedblleft
ENCODING 8220
SWIDTH 535 0
DWIDTH 6 0
BBX 6 4 0 6
BITMAP
64
AC
EC
EC
ENDCHAR
STARTCHAR quotedblright
ENCODING 8221
SWIDTH 532 0
DWIDTH 6 0
BBX 6 4 0 6
BITMAP
EC
EC
6C
CC
ENDCHAR
STARTCHAR quotedblbase
ENCODING 8222
SWIDTH 533 0
DWIDTH 6 0
BBX 6 4 0 -2
BITMAP
EC
EC
AC
C8
ENDCHAR
STARTCHAR dagger
ENCODING 8224
SWIDTH 636 0
DWIDTH 8 0
BBX 7 10 0 0
BITMAP
38
38
FE
FE
38
38
38
38
38
38
ENDCHAR
STARTCHAR daggerdbl
ENCODING 8225
SWIDTH 648 0
DWIDTH 8 0
BBX 7 10 0 0
BITMAP
38
38
FE
38
FE
38
FE
FE
38
38
ENDCHAR
STARTCHAR bullet
ENCODING 8226
SWIDTH 501 0
DWIDTH 6 0
BBX 6 5 0 2
BITMAP
78
B4
CC
4C
78
ENDCHAR
STARTCHAR ellipsis
ENCODING 8230
SWIDTH 676 0
DWIDTH 8 0
BBX 8 2 0 0
BITMAP
FB
FB
ENDCHAR
STARTCHAR perthousand
ENCODING 8240
SWIDTH 447 0
DWIDTH 5 0
BBX 5 11 0 -1
BITMAP
18
28
38
28
30
50
70
50
60
A0
E0
ENDCHAR
STARTCHAR guilsinglleft
ENCODING 8249
SWIDTH 465 0
DWIDTH 6 0
BBX 5 6 0 1
BITMAP
38
D8
B0
E8
38
08
ENDCHAR
STARTCHAR guilsinglright
ENCODING 8250
SWIDTH 465 0
DWIDTH 6 0
BBX 5 6 0 1
BITMAP
E0
F8
68
F8
F0
80
ENDCHAR
STARTCHAR fraction
ENCODING 8260
SWIDTH 447 0
DWIDTH 5 0
BBX 5 11 0 -1
BITMAP
18
28
38
28
30
50
70
50
60
A0
E0
ENDCHAR
STARTCHAR uni2074
ENCODING 8308
SWIDTH 528 0
DWIDTH 6 0
BBX 6 8 0 2
BITMAP
38
30
70
58
FC
00
FC
08
ENDCHAR
STARTCHAR Euro
ENCODING 8364
SWIDTH 781 0
DWIDTH 9 0
BBX 9 10 0 0
BITMAP
0F80
3D80
3F00
7800
DE00
D600
7800
7F00
3780
1F80
ENDCHAR
STARTCHAR trademark
ENCODING 8482
SWIDTH 1503 0
DWIDTH 18 0
BBX 18 7 0 3
BITMAP
FFC1C0
FEE3C0
39E2C0
38F7C0
38B5C0
38FFC0
38DDC0
ENDCHAR
STARTCHAR partialdiff
ENCODING 8706
SWIDTH 108 0
DWIDTH 1 0
BBX 1 1 0 0
BITMAP
00
ENDCHAR
STARTCHAR uni2206
ENCODING 8710
SWIDTH 108 0
DWIDTH 1 0
BBX 1 1 0 0
BITMAP
00
ENDCHAR
STARTCHAR product
ENCODING 8719
SWIDTH 521 0
DWIDTH 6 0
BBX 6 8 0 0
BITMAP
38
78
58
EC
BC
54
78
28
ENDCHAR
STARTCHAR summation
ENCODING 8721
SWIDTH 108 0
DWIDTH 1 0
BBX 1 1 0 0
BITMAP
00
ENDCHAR
STARTCHAR minus
ENCODING 8722
SWIDTH 555 0
DWIDTH 7 0
BBX 5 2 1 4
BITMAP
F8
F8
ENDCHAR
STARTCHAR radical
ENCODING 8730
SWIDTH 108 0
DWIDTH 1 0
BBX 1 1 0 0
BITMAP
00
ENDCHAR
STARTCHAR infinity
ENCODING 8734
SWIDTH 108 0
DWIDTH 1 0
BBX 1 1 0 0
BITMAP
00
ENDCHAR
STARTCHAR integral
ENCODING 8747
SWIDTH 362 0
DWIDTH 4 0
BBX 4 11 0 -1
BITMAP
30
60
50
50
50
50
50
50
E0
60
C0
ENDCHAR
STARTCHAR approxequal
ENCODING 8776
SWIDTH 665 0
DWIDTH 8 0
BBX 8 5 0 4
BITMAP
7B
C7
1C
7B
DF
ENDCHAR
STARTCHAR notequal
ENCODING 8800
SWIDTH 473 0
DWIDTH 6 0
BBX 5 11 0 -1
BITMAP
18
28
38
68
38
50
78
50
68
A0
E0
ENDCHAR
STARTCHAR lessequal
ENCODING 8804
SWIDTH 108 0
DWIDTH 1 0
BBX 1 1 0 0
BITMAP
00
ENDCHAR
STARTCHAR greaterequal
ENCODING 8805
SWIDTH 108 0
DWIDTH 1 0
BBX 1 1 0 0
BITMAP
00
ENDCHAR
STARTCHAR lozenge
ENCODING 9674
SWIDTH 521 0
DWIDTH 6 0
BBX 6 8 0 0
BITMAP
38
78
58
EC
BC
54
78
28
ENDCHAR
STARTCHAR uniF8FF
ENCODING 63743
SWIDTH 108 0
DWIDTH 1 0
BBX 1 1 0 0
BITMAP
00
ENDCHAR
STARTCHAR uniFB01
ENCODING 64257
SWIDTH 962 0
DWIDTH 12 0
BBX 10 8 1 0
BITMAP
FDC0
FDC0
E1C0
FDC0
FDC0
E1C0
E1C0
E1C0
ENDCHAR
STARTCHAR uniFB02
ENCODING 64258
SWIDTH 1208 0
DWIDTH 15 0
BBX 13 8 1 0
BITMAP
FDC0
FDC0
E1C0
FDC0
FDC0
E1C0
E1F8
E1F8
ENDCHAR
STARTCHAR .notdef
ENCODING -1
SWIDTH 108 0
DWIDTH 1 0
BBX 1 1 0 0
BITMAP
00
ENDCHAR
ENDFONT
